<svg width="42" height="42" viewBox="0 0 42 42" fill="none" xmlns="http://www.w3.org/2000/svg">
<path d="M36.2968 30.1315L36.0693 29.848C34.2685 27.5713 32.7635 26.3865 31.472 26.2308C30.3555 26.0785 29.2758 26.8503 28.1278 27.6448L26.901 28.4113C26.754 28.4848 26.6088 28.5443 26.4723 28.5845C25.7548 28.7875 23.9435 28.9065 22.918 27.9685C21.7245 26.8765 19.873 24.878 18.4328 23.1315C17.0573 21.3238 15.5453 19.0698 14.756 17.6505C14.0893 16.4483 14.6475 14.7665 15.0203 14.1435C15.0938 14.021 15.19 13.9003 15.2968 13.7813L16.3783 12.782C16.394 12.7663 16.401 12.747 16.415 12.733C16.4255 12.7225 16.443 12.726 16.4553 12.7173C17.4318 11.893 18.4415 11.0443 18.5798 9.95403C18.7425 8.67303 17.9463 6.94053 16.142 4.66553L15.9215 4.38203C14.805 2.95053 13.1163 0.785784 10.6908 1.14278C9.73703 1.28453 8.88478 1.61003 8.00628 2.16128C7.99753 2.16653 7.99228 2.17703 7.98528 2.18228C7.97828 2.18753 7.96953 2.18753 7.96253 2.19278L6.73928 3.09928C6.72703 3.10628 6.72003 3.12203 6.70778 3.13253C6.69903 3.14128 6.68503 3.14303 6.67453 3.15178C6.53278 3.27078 6.39103 3.39328 6.25103 3.51928C5.01028 4.62528 2.32403 7.83653 4.15628 13.776C5.33928 17.612 7.77878 22.0885 11.228 26.747L11.1948 26.775L13.097 29.1445L13.1128 29.1323C16.8525 33.5563 20.6588 36.9758 24.1465 39.046C26.474 40.4285 28.5075 40.8853 30.1805 40.8853C32.382 40.8853 33.9588 40.0943 34.7498 39.5798L35.2468 39.2473C35.3028 39.2088 35.343 39.1545 35.3833 39.1055L36.4665 38.29C36.4788 38.2795 36.4858 38.2655 36.498 38.255C36.5033 38.2498 36.512 38.2515 36.519 38.2463C37.289 37.5428 37.8228 36.806 38.1938 35.9328C39.1545 33.6945 37.4343 31.5508 36.2968 30.1315ZM36.9075 35.3833C36.6188 36.0623 36.197 36.6398 35.588 37.1998L33.9763 38.4125C32.5168 39.361 29.3965 40.5335 24.864 37.842C21.3763 35.7718 17.5368 32.2718 13.7585 27.72L12.7365 26.4285C9.17878 21.7105 6.67628 17.192 5.49503 13.363C3.96028 8.38428 5.89403 5.71378 7.18903 4.56053C7.32028 4.44153 7.45153 4.33128 7.58103 4.22103L7.58628 4.21578L8.76053 3.34603C9.47453 2.89453 10.136 2.64253 10.8973 2.52703C12.523 2.28203 13.846 3.99703 14.8173 5.24303L15.0448 5.53178C17.0608 8.07453 17.255 9.28378 17.192 9.77728C17.122 10.325 16.289 11.0268 15.554 11.6445L15.4508 11.732C15.4473 11.7355 15.4455 11.7408 15.442 11.7443C15.4368 11.7478 15.4315 11.7495 15.4263 11.753L14.308 12.7873C14.301 12.7943 14.2975 12.803 14.2905 12.8118C14.2835 12.8205 14.2695 12.824 14.2625 12.8328C14.0893 13.027 13.9405 13.2213 13.8198 13.4225C13.1915 14.4743 12.5983 16.6478 13.5345 18.3295C14.3518 19.7995 15.9075 22.1218 17.3373 23.9978C18.8318 25.8108 20.7375 27.8688 21.973 28.9975C22.8988 29.8428 24.1868 30.1263 25.3015 30.1263C25.8983 30.1263 26.446 30.044 26.8608 29.9268C27.0795 29.8638 27.3053 29.7728 27.538 29.659C27.552 29.652 27.559 29.6398 27.573 29.631C27.58 29.6275 27.5905 29.6293 27.5975 29.624L28.896 28.812C28.938 28.784 28.966 28.7473 29.001 28.7123L29.0168 28.7298C29.8165 28.175 30.7283 27.524 31.2988 27.6185C31.8045 27.6798 32.9525 28.1663 34.972 30.716L35.2048 31.0083C36.1883 32.235 37.5358 33.915 36.9075 35.3833Z" fill="white"/>
</svg>
